<svg width="42" height="55" viewBox="0 0 42 55" fill="none" xmlns="http://www.w3.org/2000/svg">
<path d="M0.626809 47.8454C0.281672 47.8454 0.0010774 48.1233 0.0010774 48.4666V51.7172C0.0010774 53.408 1.38254 54.7826 3.08034 54.7826H33.9594C35.6572 54.7826 37.0386 53.408 37.0386 51.7172V50.5995H39.6725C40.5388 50.5995 41.3033 50.1475 41.7166 49.3904C42.126 48.6383 42.0902 47.7244 41.6197 47.0043C39.6985 44.0612 38.2983 39.7473 37.5698 34.5292C37.5226 34.1884 37.2074 33.9512 36.8647 33.9981C36.5235 34.0463 36.2841 34.36 36.3311 34.7009C37.0956 40.1758 38.5219 44.5429 40.5709 47.6811C40.7942 48.0233 40.8118 48.4407 40.6182 48.7964C40.427 49.1459 40.0734 49.3546 39.6725 49.3546H9.54704C8.29952 49.3546 7.09321 48.7482 6.35203 47.7503C5.83841 47.0575 5.39267 46.3201 4.98814 45.5594L4.98329 45.5507C1.64949 39.2014 1.28951 25.1664 1.25466 22.7432H35.7887C35.7987 23.5806 35.846 30.1448 36.0384 32.1851C36.0705 32.5272 36.3759 32.7779 36.7196 32.7458C37.0623 32.7137 37.3153 32.4099 37.2832 32.0678C37.0089 29.1691 37.0374 22.1517 37.0386 22.1307V22.1257V22.1208V6.74454C37.0386 5.05502 35.6572 3.67919 33.9594 3.67919H32.3209V2.77637C32.3209 1.24491 31.0686 0 29.5295 0C27.9905 0 26.7381 1.24491 26.7381 2.77637V3.67919H10.3016V2.77637C10.3016 1.24491 9.04919 0 7.51016 0C5.97113 0 4.71876 1.24491 4.71876 2.77637V3.67919H3.08034C1.38254 3.67919 0.0010774 5.05502 0.0010774 6.74454C0.0010774 6.74454 -0.00134675 22.353 0.0010774 22.6728V45.978C0.0010774 46.3226 0.281672 46.6005 0.626809 46.6005C0.971643 46.6005 1.25224 46.3226 1.25224 45.978V38.6431C1.96827 41.8493 2.96005 44.5627 4.21848 46.7573C4.5624 47.3551 4.93602 47.9356 5.34692 48.4889C6.32597 49.8103 7.8962 50.5995 9.54704 50.5995H35.7875V51.7172C35.7875 52.7213 34.9672 53.5377 33.9594 53.5377H3.08034C2.07251 53.5377 1.25224 52.7213 1.25224 51.7172V48.4666C1.25224 48.1233 0.971643 47.8454 0.626809 47.8454ZM27.9893 2.77637C27.9893 1.93159 28.6805 1.24369 29.5295 1.24369C30.3798 1.24369 31.071 1.93159 31.071 2.77637V5.82814C31.071 6.65933 30.365 7.36084 29.5295 7.36084C28.6905 7.36084 27.9893 6.6618 27.9893 5.82814V2.77637ZM5.96871 2.77637C5.96871 1.93159 6.65989 1.24369 7.51016 1.24369C8.35922 1.24369 9.0504 1.93159 9.0504 2.77637V5.82814C9.0504 6.65933 8.34406 7.36084 7.51016 7.36084C6.6711 7.36084 5.96871 6.6618 5.96871 5.82814V2.77637ZM1.25224 6.74454C1.25224 5.74045 2.07251 4.9241 3.08034 4.9241H4.71876V5.82814C4.71876 7.33613 5.99477 8.60451 7.51016 8.60451C9.01707 8.60451 10.3016 7.34478 10.3016 5.82814V4.9241H26.7381V5.82814C26.7381 7.3386 28.0129 8.60451 29.5295 8.60451C31.0377 8.60451 32.3209 7.34478 32.3209 5.82814V4.9241H33.9594C34.9672 4.9241 35.7875 5.74045 35.7875 6.74454V21.4983H1.25224V6.74454Z" fill="#71317D"/>
</svg>
