<svg width="24" height="24" viewBox="0 0 24 24" fill="none" xmlns="http://www.w3.org/2000/svg">
<path fill-rule="evenodd" clip-rule="evenodd" d="M8.67176 4.0431C8.54506 4.08102 7.6766 4.92097 4.85979 7.72972C2.62587 9.95731 1.17401 11.4399 1.1141 11.5547C0.98276 11.8065 0.982807 12.1938 1.1142 12.4453C1.2581 12.7209 8.36168 19.8028 8.58823 19.8966C9.41524 20.239 10.2682 19.3831 9.89426 18.586C9.83492 18.4595 8.93595 17.5297 7.12967 15.7267C5.65751 14.2573 4.45301 13.0393 4.45301 13.0201C4.45301 13.0009 8.48009 12.9797 13.4021 12.9731L22.3512 12.961L22.5544 12.8183C23.1326 12.4123 23.1326 11.5877 22.5544 11.1818L22.3512 11.0391L13.4021 11.027C8.48009 11.0204 4.45301 10.9997 4.45301 10.9811C4.45301 10.9624 5.68484 9.71277 7.19042 8.20405C9.89712 5.49172 9.92838 5.45825 9.97803 5.21942C10.0543 4.85207 9.95693 4.53435 9.69092 4.28305C9.39706 4.00536 9.06157 3.92638 8.67176 4.0431Z" fill="#FAFAFA"/>
</svg>
