<svg width="14" height="14" viewBox="0 0 14 14" fill="none" xmlns="http://www.w3.org/2000/svg">
<g clip-path="url(#clip0_586_10095)">
<path fill-rule="evenodd" clip-rule="evenodd" d="M6.57615 0.0183348C4.09947 0.226503 1.94943 1.61608 0.831725 3.73107C0.160545 5.00108 -0.0914551 6.61056 0.152971 8.06637C0.267814 8.75042 0.4619 9.3469 0.782396 10.0009L0.986709 10.4178L0.495396 12.2018C0.225158 13.183 0.00651755 13.9883 0.00955271 13.9913C0.0125879 13.9943 0.842662 13.7809 1.85419 13.5169L3.6933 13.037L3.95895 13.1666C4.94335 13.6467 5.91001 13.8708 6.99998 13.8714C7.58284 13.8717 7.99784 13.8275 8.52981 13.7086C10.7845 13.2046 12.6844 11.597 13.5174 9.48824C13.8496 8.64723 13.9845 7.91001 13.985 6.9316C13.9853 6.32307 13.9628 6.07618 13.8604 5.56441C13.6153 4.33881 12.9901 3.11742 12.1667 2.25582C12.0661 2.15055 11.9791 2.05011 11.9733 2.03264C11.9572 1.98375 11.5553 1.63132 11.2645 1.41106C10.2485 0.641636 9.06846 0.175097 7.7967 0.0401278C7.46157 0.00455355 6.8666 -0.00605583 6.57615 0.0183348ZM6.39842 1.17856C5.35474 1.29589 4.35951 1.69341 3.52131 2.32776C3.25219 2.53142 2.7223 3.05305 2.50891 3.32439C1.99679 3.97558 1.61088 4.7628 1.41089 5.56441C1.24278 6.2383 1.19709 7.11401 1.29687 7.75098C1.42347 8.5594 1.72302 9.35535 2.14816 10.0131L2.26651 10.1963L1.98117 11.2299C1.82425 11.7985 1.69571 12.2768 1.69557 12.293C1.6954 12.3095 2.16648 12.2 2.78019 12.0407L3.86508 11.7592L4.10455 11.8962C5.42143 12.6498 6.91563 12.8753 8.33983 12.5353C10.5031 12.0189 12.1926 10.3495 12.6828 8.2441C12.8234 7.64005 12.8647 6.79116 12.7835 6.17421C12.4681 3.77766 10.6507 1.79661 8.29881 1.2855C7.72183 1.16013 6.94915 1.11662 6.39842 1.17856ZM4.33711 3.75896C4.05889 3.85814 3.6615 4.43667 3.53837 4.92183C3.50387 5.05782 3.49629 5.17985 3.50611 5.44137C3.51721 5.73624 3.53126 5.81882 3.60851 6.04293C3.77282 6.51961 4.00699 6.91749 4.45116 7.4747C5.1735 8.38085 5.76623 8.95334 6.40501 9.36186C6.77554 9.59885 7.5581 9.94373 8.14232 10.1275C8.62538 10.2795 9.17531 10.2741 9.56094 10.1136C9.96735 9.94439 10.3063 9.66991 10.4207 9.41726C10.5386 9.15716 10.6046 8.61067 10.5292 8.51984C10.4915 8.47431 10.2715 8.36715 10.2158 8.36715C10.1945 8.36715 9.91751 8.2432 9.60021 8.09174C9.16862 7.88568 8.98648 7.81251 8.87705 7.80121L8.73079 7.78612L8.47108 8.1108C8.03675 8.65379 8.00826 8.6813 7.88329 8.67802C7.8116 8.67613 7.65703 8.61863 7.42362 8.50696C6.66647 8.14479 6.09977 7.67057 5.60635 6.98629C5.37437 6.66456 5.26838 6.46506 5.28799 6.38694C5.29701 6.35104 5.38025 6.23127 5.47297 6.12078C5.68196 5.87176 5.8423 5.62774 5.86508 5.52403C5.89048 5.40839 5.25963 3.90153 5.14077 3.79391C5.06033 3.72106 5.04805 3.71874 4.75052 3.71991C4.56122 3.72065 4.40257 3.73564 4.33711 3.75896Z" fill="#FAFAFA"/>
</g>
<defs>
<clipPath id="clip0_586_10095">
<rect width="14" height="14" fill="white"/>
</clipPath>
</defs>
</svg>
