<svg width="14" height="14" viewBox="0 0 14 14" fill="none" xmlns="http://www.w3.org/2000/svg">
<g clip-path="url(#clip0_586_10089)">
<path fill-rule="evenodd" clip-rule="evenodd" d="M6.47645 2.56031C6.17709 2.5926 5.66706 2.69219 5.37981 2.77447C3.70763 3.25339 1.89401 4.54697 0.428771 6.30588C0.123197 6.6727 0.000868908 6.87105 0.000732564 7.00003C0.000487144 7.18783 0.318251 7.61196 1.00311 8.33791C2.36371 9.78021 3.92131 10.8079 5.37981 11.2256C5.96808 11.3941 6.31979 11.4415 6.98093 11.4415C7.64206 11.4415 7.99377 11.3941 8.58204 11.2256C10.0405 10.8079 11.5981 9.78021 12.9587 8.33791C13.6447 7.61073 13.989 7.14681 13.989 6.94961C13.989 6.91218 13.9811 6.88951 13.9714 6.89922C13.9617 6.90895 13.926 6.85872 13.892 6.78757C13.8162 6.62881 13.4207 6.15188 12.9587 5.66216C11.5985 4.22024 10.0405 3.19217 8.58297 2.77474C8.05919 2.62473 7.6618 2.56679 7.09 2.55708C6.81254 2.55238 6.53644 2.55383 6.47645 2.56031ZM6.28914 3.5157C5.14764 3.69371 3.93467 4.30271 2.7307 5.30234C2.22093 5.7256 1.06359 6.90417 1.06359 7.00003C1.06359 7.03167 1.45034 7.4689 1.78531 7.81594C3.02236 9.0976 4.45259 10.02 5.73449 10.3629C6.17262 10.4801 6.52903 10.527 6.98093 10.527C7.80098 10.527 8.52246 10.3434 9.39422 9.91291C10.5353 9.34935 11.6514 8.45087 12.6893 7.2604C12.8042 7.1286 12.8983 7.01144 12.8983 7.00003C12.8983 6.91838 11.815 5.80041 11.3576 5.40999C10.1082 4.34362 8.8366 3.69357 7.64901 3.5142C7.31211 3.46331 6.62019 3.46408 6.28914 3.5157ZM6.41889 4.29456C5.14238 4.56354 4.22677 5.69355 4.22677 7.00003C4.22677 8.52412 5.46102 9.76175 6.98093 9.76175C8.50206 9.76175 9.73508 8.52535 9.73508 7.00003C9.73508 5.25279 8.12093 3.93589 6.41889 4.29456ZM6.76875 5.17325C6.53151 5.19811 6.24254 5.29447 6.03194 5.41899C5.82473 5.54152 5.51768 5.85406 5.39164 6.07076C5.06821 6.62682 5.06821 7.37325 5.39164 7.92931C5.51768 8.14601 5.82473 8.45855 6.03194 8.58108C6.60631 8.92069 7.35554 8.92069 7.92991 8.58108C8.12701 8.46454 8.44142 8.14926 8.55764 7.95162C8.72098 7.67384 8.78828 7.43381 8.80147 7.08206C8.81541 6.71041 8.77221 6.48553 8.63094 6.19416C8.28877 5.48842 7.5623 5.09015 6.76875 5.17325ZM0.00643175 7.00003C0.00643175 7.05267 0.0120491 7.07419 0.0188936 7.04788C0.0257653 7.02158 0.0257653 6.97851 0.0188936 6.95218C0.0120491 6.92585 0.00643175 6.9474 0.00643175 7.00003Z" fill="#71317D"/>
</g>
<defs>
<clipPath id="clip0_586_10089">
<rect width="13.9616" height="14" fill="white"/>
</clipPath>
</defs>
</svg>
