<svg width="12" height="12" viewBox="0 0 12 12" fill="none" xmlns="http://www.w3.org/2000/svg">
<g clip-path="url(#clip0_586_10091)">
<path fill-rule="evenodd" clip-rule="evenodd" d="M5.79103 0.0402451C5.73412 0.0603545 5.64347 0.12087 5.58961 0.174753C5.40344 0.360894 5.41401 0.193433 5.41401 2.9573V5.41407H2.95725C0.194061 5.41407 0.360771 5.40357 0.175123 5.58924C-0.0541426 5.81848 -0.0541426 6.18153 0.175123 6.41077C0.360771 6.59644 0.194061 6.58594 2.95725 6.58594H5.41401V9.04271C5.41401 11.8059 5.40351 11.6392 5.58919 11.8248C5.81843 12.0541 6.18147 12.0541 6.41072 11.8248C6.59639 11.6392 6.58589 11.8059 6.58589 9.04271V6.58594H9.04265C11.8069 6.58594 11.639 6.59656 11.8254 6.41014C11.8794 6.35614 11.9368 6.27078 11.9529 6.22043C11.969 6.17009 11.9914 6.1189 12.0028 6.10664C12.0293 6.078 12.0299 5.85258 12.0034 5.86894C11.9925 5.87574 11.9706 5.83845 11.955 5.78607C11.9386 5.73148 11.884 5.64839 11.8268 5.59128C11.6388 5.40321 11.8091 5.41407 9.04265 5.41407H6.58589V2.9573C6.58589 0.194112 6.59639 0.360823 6.41072 0.175175C6.24811 0.012542 6.01385 -0.038458 5.79103 0.0402451ZM0.00698242 6C0.00698242 6.0709 0.0113652 6.09989 0.0167324 6.06446C0.0220996 6.02902 0.0220996 5.97099 0.0167324 5.93555C0.0113652 5.90011 0.00698242 5.9291 0.00698242 6Z" fill="#FAFAFA"/>
</g>
<defs>
<clipPath id="clip0_586_10091">
<rect width="12" height="12" fill="white"/>
</clipPath>
</defs>
</svg>
