<svg width="12" height="12" viewBox="0 0 12 12" fill="none" xmlns="http://www.w3.org/2000/svg">
<g clip-path="url(#clip0_586_10102)">
<path fill-rule="evenodd" clip-rule="evenodd" d="M5.46088 0.0353106C4.10772 0.201295 2.90596 0.981225 2.18837 2.15912C1.36607 3.50887 1.33818 5.26958 2.11752 6.631C2.18603 6.75067 2.97948 7.8928 3.88077 9.16907C4.78206 10.4453 5.52299 11.4989 5.52728 11.5104C5.5318 11.5225 4.88118 11.5313 3.98511 11.5313C2.68944 11.5313 2.42453 11.5368 2.37053 11.5647C2.21455 11.6454 2.21455 11.886 2.37053 11.9666C2.46756 12.0168 9.53233 12.0168 9.62936 11.9666C9.78533 11.886 9.78533 11.6454 9.62936 11.5647C9.57538 11.5368 9.31072 11.5313 8.01674 11.5313C7.1653 11.5313 6.46869 11.5257 6.46869 11.519C6.46869 11.5122 6.7199 11.151 7.0269 10.7162C7.74688 9.69681 7.71088 9.75229 7.71088 9.66175C7.71088 9.49215 7.53529 9.3782 7.38983 9.45341C7.34019 9.47908 7.12457 9.76567 6.66932 10.4111C6.31201 10.9176 6.01093 11.3321 6.00025 11.3321C5.98958 11.3321 5.22062 10.2563 4.29142 8.94144C2.90061 6.9734 2.57549 6.49883 2.45209 6.2567C1.2985 3.99299 2.54104 1.23817 5.00434 0.598162C7.12532 0.0470762 9.30226 1.33037 9.85494 3.45756C10.0995 4.39867 9.991 5.38708 9.54777 6.2567C9.44392 6.46047 9.25778 6.74851 8.94191 7.19427C8.69113 7.54815 8.47956 7.86683 8.47173 7.90241C8.42999 8.09242 8.68047 8.2453 8.83787 8.12589C8.8911 8.08553 9.66409 6.99095 9.82391 6.72969C10.4695 5.67416 10.6253 4.30867 10.2383 3.0966C9.59146 1.07059 7.57173 -0.223627 5.46088 0.0353106ZM5.61871 2.37929C4.58083 2.5761 3.83908 3.5158 3.89844 4.55863C3.95226 5.50387 4.59629 6.27669 5.52348 6.50865C5.76522 6.56912 6.28018 6.56233 6.52729 6.49539C7.28626 6.28982 7.864 5.69779 8.05522 4.92962C8.1099 4.71001 8.1099 4.19631 8.05522 3.9767C7.86383 3.2079 7.27794 2.60826 6.52729 2.41293C6.27899 2.34833 5.86318 2.33294 5.61871 2.37929ZM5.75385 2.8289C5.46646 2.86701 5.11717 3.04197 4.88134 3.26596C4.48829 3.63927 4.30944 4.13315 4.3761 4.66117C4.47735 5.46332 5.19198 6.09379 5.99994 6.09379C6.61241 6.09379 7.18858 5.7324 7.46324 5.17597C7.69867 4.69904 7.69867 4.20728 7.46324 3.73035C7.14815 3.09201 6.46928 2.734 5.75385 2.8289ZM7.99471 8.61088C7.79153 8.7235 7.87654 9.04691 8.10932 9.04691C8.22808 9.04691 8.34369 8.93242 8.34369 8.81481C8.34369 8.63884 8.14923 8.52522 7.99471 8.61088Z" fill="#71317D"/>
</g>
<defs>
<clipPath id="clip0_586_10102">
<rect width="12" height="12" fill="white"/>
</clipPath>
</defs>
</svg>
