<svg width="14" height="14" viewBox="0 0 14 14" fill="none" xmlns="http://www.w3.org/2000/svg">
<g clip-path="url(#clip0_586_10093)">
<path fill-rule="evenodd" clip-rule="evenodd" d="M12.9337 0.017246C12.8961 0.0243827 10.1119 0.947398 6.74658 2.06836C0.133463 4.27114 0.429076 4.16425 0.21935 4.42902C0.0647481 4.62423 0.0139434 4.77355 0.0139161 5.03275C0.0138887 5.2475 0.0222012 5.28349 0.115225 5.47175C0.298565 5.84272 0.186674 5.77469 2.9669 7.20515L5.48253 8.4995L6.78447 11.0241C8.22065 13.8091 8.15456 13.7002 8.51769 13.8793C8.87088 14.0536 9.2062 14.0324 9.51467 13.8164C9.83601 13.5914 9.67299 14.0336 11.9384 7.24228L13.9849 1.10739L13.9849 0.861293C13.9848 0.670488 13.9721 0.587254 13.9281 0.490758C13.7922 0.192957 13.535 0.0240546 13.1982 0.0115312C13.0903 0.00753899 12.9713 0.010082 12.9337 0.017246ZM6.63187 2.96862C2.24651 4.43228 0.930178 4.8817 0.879236 4.93264C0.8056 5.00625 0.810986 5.09211 0.89526 5.18915C0.939092 5.23963 5.65228 7.68356 5.70576 7.68356C5.7184 7.68356 7.21754 6.19469 9.03722 4.37496C10.8569 2.55524 12.3396 1.06733 12.3321 1.06853C12.3246 1.06971 9.7595 1.92475 6.63187 2.96862ZM9.61308 4.97489L6.30623 8.28181L6.34107 8.35868C6.50037 8.70993 8.76802 13.0676 8.81086 13.1048C8.90799 13.1891 8.99382 13.1945 9.06743 13.1209C9.11837 13.0699 9.56692 11.7545 11.0313 7.36137C12.0752 4.22999 12.9271 1.66793 12.9246 1.66793C12.922 1.66793 11.4318 3.15606 9.61308 4.97489Z" fill="#FAFAFA"/>
</g>
<defs>
<clipPath id="clip0_586_10093">
<rect width="14" height="14" fill="white"/>
</clipPath>
</defs>
</svg>
