<svg width="24" height="24" viewBox="0 0 24 24" fill="none" xmlns="http://www.w3.org/2000/svg">
<path fill-rule="evenodd" clip-rule="evenodd" d="M9.18744 1.2242C7.71992 1.31012 6.36186 1.86535 5.1679 2.86763C4.65209 3.30062 4.55515 3.49585 4.70867 3.79267C4.79108 3.95204 5.00862 4.05081 5.18825 4.01045C5.26086 3.99413 5.47845 3.84165 5.67181 3.67163C6.83717 2.64699 8.14095 2.15256 9.67962 2.15176C11.2188 2.15096 12.5184 2.64381 13.6874 3.67163C13.8808 3.84165 14.0984 3.99413 14.171 4.01045C14.3506 4.05081 14.5682 3.95204 14.6506 3.79267C14.8041 3.49585 14.7072 3.30062 14.1913 2.86763C12.7412 1.65029 11.1024 1.11207 9.18744 1.2242ZM9.07194 3.42709C8.55551 3.48981 7.75794 3.7651 7.29851 4.03923C6.87439 4.29231 6.3394 4.72473 6.24889 4.88757C6.07775 5.19568 6.31367 5.57818 6.67489 5.57818C6.78889 5.57818 6.90059 5.50581 7.34309 5.14529C8.75459 3.99531 10.8816 4.07387 12.242 5.32623C12.556 5.61526 12.8167 5.65206 13.0312 5.43756C13.2466 5.22217 13.2059 4.93628 12.9222 4.67162C12.4391 4.22096 11.8154 3.84915 11.1952 3.64192C10.5409 3.42334 9.75659 3.34398 9.07194 3.42709ZM8.91664 5.79052C8.36272 5.97924 7.86148 6.35049 7.80336 6.61515C7.73914 6.90765 7.96981 7.17193 8.28936 7.17193C8.38128 7.17193 8.50315 7.10912 8.65498 6.98354C8.99872 6.69924 9.31648 6.59598 9.77337 6.62021C10.1889 6.64224 10.3965 6.72568 10.7303 7.00449C11.0243 7.25012 11.3331 7.22054 11.5046 6.93024C11.6327 6.71345 11.5715 6.51376 11.3031 6.27245C10.6783 5.7107 9.71942 5.51706 8.91664 5.79052ZM4.05462 8.4654C3.02365 8.65126 2.10294 9.14288 1.39184 9.88717C0.773186 10.5347 0.380796 11.2309 0.153593 12.0842C0.0476551 12.4819 0.0322801 12.6333 0.0312957 13.2891C0.0303113 13.952 0.0444207 14.0919 0.152468 14.4941C0.650561 16.3475 2.09276 17.7169 3.9448 18.0951C4.35237 18.1784 4.59097 18.1876 6.3403 18.1876H8.28312L8.40528 18.0744C8.63337 17.8629 8.61903 17.5543 8.37256 17.3701C8.24792 17.277 8.17001 17.2726 6.19583 17.2486L4.14837 17.2237L3.74994 17.0921C2.82106 16.7855 2.08751 16.2268 1.57681 15.4369C1.1743 14.8143 0.994296 14.2475 0.954358 13.4766C0.852921 11.5197 2.19359 9.80377 4.13759 9.4022C4.45175 9.33732 5.1463 9.32818 9.76278 9.32818C13.2366 9.32818 15.1243 9.34496 15.3077 9.37745C16.9338 9.66545 18.1538 10.8253 18.5458 12.4556C18.657 12.9182 18.6463 13.7 18.5218 14.2173C18.4082 14.6889 18.1296 15.3285 18.0381 15.3276C18.0042 15.3272 17.7023 15.2535 17.3671 15.1637C17.032 15.0739 16.7119 15.0003 16.6559 15.0002C16.5214 15 16.2834 15.204 16.2464 15.3511C16.2222 15.4477 16.3392 15.9977 16.5275 16.6727C16.5517 16.7593 16.5199 16.7933 16.3212 16.894C16.1921 16.9595 15.9316 17.0595 15.7424 17.1163C15.425 17.2116 15.2693 17.2217 13.7343 17.2466C11.9214 17.2759 11.9012 17.279 11.7893 17.5468C11.7051 17.7483 11.749 17.9309 11.9153 18.0709L12.054 18.1876H13.5912C15.3207 18.1876 15.6678 18.1501 16.3661 17.8877C16.5955 17.8016 16.791 17.7441 16.8005 17.7601C16.81 17.776 17.0532 18.6953 17.341 19.8028C17.6287 20.9104 17.8879 21.8452 17.9169 21.8801C17.9459 21.9151 18.0307 21.9753 18.1054 22.0139C18.3601 22.1456 18.488 22.0709 19.1839 21.3832L19.8288 20.7458L20.8504 21.7636C22.189 23.0971 21.9825 23.0813 23.1301 21.9386L23.9765 21.0959V20.8843V20.6727L22.9568 19.6523L21.9372 18.6318L22.5499 18.023C23.1691 17.4077 23.2968 17.2431 23.2968 17.0604C23.2968 16.9108 23.1546 16.6981 23.0183 16.6437C22.9524 16.6174 22.0335 16.3716 20.9765 16.0974C19.9195 15.8233 19.047 15.5919 19.0376 15.5833C19.0283 15.5746 19.0947 15.3924 19.1853 15.1784C19.7378 13.8727 19.6918 12.4309 19.0563 11.1329C18.4177 9.82867 17.2803 8.9094 15.8202 8.51752C15.4477 8.41754 15.4085 8.41679 9.93744 8.40732C5.31369 8.39931 4.36944 8.40863 4.05462 8.4654ZM4.58553 10.7654C4.51658 10.8095 4.4375 10.8954 4.40975 10.9563C4.33939 11.1107 4.33976 15.6091 4.41017 15.7636C4.53908 16.0464 4.93812 16.0993 5.1604 15.8629C5.26948 15.7469 5.27389 15.7148 5.28809 14.9261L5.30286 14.1094H5.78783C6.1279 14.1094 6.356 14.0836 6.55119 14.0228C7.47495 13.7353 7.97244 12.8214 7.69376 11.9236C7.52708 11.3866 7.19394 11.0269 6.65619 10.8034C6.34592 10.6745 4.7728 10.6456 4.58553 10.7654ZM9.80609 10.766C9.72097 10.8079 9.62244 10.8981 9.58714 10.9664C9.42064 11.2883 7.87494 15.4413 7.87494 15.5667C7.87494 15.7614 7.9445 15.8758 8.11719 15.9651C8.28261 16.0506 8.50114 16.0262 8.63229 15.9075C8.67842 15.8657 8.79289 15.6335 8.88669 15.3915L9.05722 14.9514L10.0655 14.964L11.0738 14.9766L11.2442 15.4195C11.3862 15.7884 11.4408 15.8777 11.5715 15.954C11.697 16.0273 11.7614 16.0371 11.8947 16.0032C12.0905 15.9536 12.2499 15.7611 12.2499 15.5744C12.2499 15.456 10.7243 11.3245 10.5615 11.0019C10.482 10.8445 10.2397 10.6876 10.0781 10.6888C10.0136 10.6893 9.89122 10.724 9.80609 10.766ZM12.4738 10.7506C12.4122 10.7861 12.3339 10.8655 12.2997 10.9271C12.1642 11.1716 12.2081 11.2722 12.9374 12.3889L13.6406 13.4655V14.6099V15.7543L13.7537 15.8675C13.9724 16.0862 14.2769 16.0682 14.458 15.8259C14.5478 15.7058 14.5563 15.6147 14.5781 14.5397L14.6015 13.3829L15.2154 12.4454C15.9462 11.3293 15.9374 11.345 15.9374 11.1464C15.9374 10.8227 15.624 10.6214 15.3186 10.749C15.1899 10.8028 15.0652 10.9636 14.6466 11.6162C14.364 12.0569 14.1193 12.4184 14.1029 12.4197C14.0865 12.4209 13.8493 12.0772 13.5758 11.6559C13.3023 11.2346 13.0388 10.8541 12.9903 10.8102C12.8705 10.7017 12.611 10.6718 12.4738 10.7506ZM5.29681 12.3985V13.1719H5.75075C6.11408 13.1719 6.24476 13.1526 6.40526 13.0749C6.85906 12.8552 6.97376 12.2986 6.64287 11.9218C6.43119 11.6807 6.26267 11.6251 5.74362 11.6251H5.29681V12.3985ZM9.75401 13.1146C9.5899 13.5457 9.44576 13.9249 9.43372 13.9571C9.41684 14.0022 9.55892 14.0157 10.0496 14.0157C10.4004 14.0157 10.6874 14.0012 10.6874 13.9835C10.6874 13.9345 10.114 12.4034 10.0812 12.3646C10.0653 12.3459 9.91812 12.6834 9.75401 13.1146ZM17.6286 17.1894C17.7814 17.7771 18.0467 18.8012 18.2182 19.4654L18.53 20.673L19.0504 20.1645C19.5897 19.6375 19.7284 19.5593 19.9663 19.6476C20.0321 19.672 20.534 20.139 21.0816 20.6852L22.0774 21.6783L22.476 21.2818L22.8746 20.8853L21.8435 19.8504C20.5411 18.5433 20.5659 18.6595 21.4081 17.8072L21.8997 17.3097L21.5319 17.2117C21.3295 17.1578 20.3413 16.9009 19.3359 16.6408C18.3304 16.3808 17.4724 16.1574 17.4293 16.1445C17.3641 16.125 17.398 16.3023 17.6286 17.1894ZM9.98431 17.302C9.53469 17.4784 9.66256 18.1876 10.144 18.1876C10.6374 18.1876 10.7858 17.5053 10.3336 17.3164C10.1517 17.2404 10.1423 17.24 9.98431 17.302Z" fill="#FAFAFA"/>
</svg>
