<svg width="12" height="12" viewBox="0 0 12 12" fill="none" xmlns="http://www.w3.org/2000/svg">
<g clip-path="url(#clip0_586_10098)">
<path fill-rule="evenodd" clip-rule="evenodd" d="M5.56634 0.0151606C5.52767 0.0196841 5.39583 0.0347544 5.27337 0.0486997C3.97475 0.196426 2.70392 0.812411 1.77115 1.74625C0.832342 2.68619 0.232576 3.90215 0.0430138 5.24995C-0.00205652 5.57039 0.00448254 6.47887 0.0541935 6.80397C0.261193 8.15786 0.828147 9.30646 1.74444 10.2283C2.67054 11.1599 3.90619 11.7691 5.24994 11.9566C5.53974 11.997 6.45903 11.9977 6.73822 11.9577C7.54215 11.8424 8.24499 11.6118 8.92484 11.2401C9.23213 11.0722 9.35026 10.9769 9.42045 10.8404C9.602 10.4873 9.36868 10.0478 8.9708 9.99323C8.82919 9.97382 8.68981 10.0178 8.46655 10.1523C7.91471 10.4848 7.25893 10.708 6.57905 10.7947C6.20893 10.8419 5.54853 10.8299 5.21478 10.7699C3.28679 10.4232 1.79515 9.05339 1.32474 7.19761C1.21147 6.75075 1.1866 6.53589 1.18611 5.99995C1.18562 5.44842 1.2114 5.23605 1.33576 4.76756C1.99076 2.30008 4.46305 0.769379 6.97259 1.27753C7.36421 1.35682 7.71364 1.47623 8.09759 1.66197C9.51141 2.34593 10.4738 3.61757 10.76 5.17964C10.8069 5.43623 10.814 5.55407 10.8165 6.12886C10.8184 6.55289 10.8287 6.807 10.8456 6.84696C10.8865 6.94366 11.0135 7.07592 11.1188 7.13149C11.1907 7.16946 11.2559 7.18216 11.3788 7.18216C11.5727 7.18216 11.6888 7.131 11.8171 6.98908C11.9152 6.8805 11.9483 6.79085 11.9811 6.54454C12.0136 6.30077 12.0314 5.57034 12.0044 5.58703C11.9928 5.5942 11.9765 5.51339 11.9683 5.40743C11.9363 4.99851 11.8103 4.43447 11.6522 3.99349C11.0939 2.43539 9.97707 1.22409 8.45473 0.525489C7.92326 0.281598 7.15728 0.0788637 6.56244 0.0246762C6.31224 0.00187155 5.7282 -0.00370657 5.56634 0.0151606ZM8.1679 3.82547C8.12923 3.83918 8.06595 3.87154 8.02728 3.89739C7.98861 3.92325 7.31633 4.58336 6.53333 5.3643L5.10971 6.78419L4.55286 6.22936C3.95527 5.6339 3.88158 5.57953 3.67062 5.57859C3.50527 5.57784 3.38628 5.62078 3.27005 5.72308C3.06732 5.90154 3.01151 6.16868 3.12654 6.41011C3.20426 6.57325 4.7183 8.0838 4.87494 8.15446C5.01317 8.21683 5.20501 8.21695 5.34369 8.15475C5.50187 8.0838 8.79362 4.7954 8.87319 4.62886C9.01283 4.33654 8.88699 3.99025 8.59109 3.85246C8.46291 3.79277 8.291 3.7818 8.1679 3.82547ZM0.0095216 5.98823C0.00949816 6.20737 0.0130138 6.30018 0.0173497 6.19446C0.0216857 6.08875 0.0217091 5.90946 0.0173966 5.79602C0.0131075 5.68261 0.00954504 5.76909 0.0095216 5.98823Z" fill="#71317D"/>
</g>
<defs>
<clipPath id="clip0_586_10098">
<rect width="12" height="12" fill="white"/>
</clipPath>
</defs>
</svg>
