<svg width="12" height="12" viewBox="0 0 12 12" fill="none" xmlns="http://www.w3.org/2000/svg">
<g clip-path="url(#clip0_586_10100)">
<path fill-rule="evenodd" clip-rule="evenodd" d="M5.42583 0.0245917C4.01967 0.168826 2.73283 0.780732 1.74211 1.77626C-0.579119 4.10876 -0.576447 7.90402 1.74804 10.2285C3.73312 12.2136 6.78133 12.5693 9.16767 11.0943C9.45553 10.9163 9.49223 10.8782 9.49223 10.757C9.49223 10.6815 9.47728 10.6455 9.42372 10.5919C9.31572 10.4839 9.2404 10.4976 8.95317 10.6776C8.30437 11.0843 7.56937 11.3561 6.79364 11.4764C6.42255 11.5339 5.60023 11.5344 5.22661 11.4774C4.392 11.35 3.64451 11.0636 2.95317 10.6062C1.07555 9.36427 0.137647 7.12557 0.575319 4.93044C0.866202 3.47152 1.70993 2.21651 2.95317 1.39351C3.93328 0.744685 5.02931 0.433998 6.18755 0.476701C7.43604 0.522732 8.54505 0.942053 9.51136 1.73347C10.5707 2.6011 11.2648 3.83129 11.4756 5.2148C11.5344 5.60082 11.5349 6.41684 11.4765 6.79355C11.3567 7.56605 11.082 8.30874 10.6779 8.95308C10.4977 9.24031 10.484 9.31559 10.592 9.42364C10.6807 9.51233 10.8263 9.51964 10.9063 9.43941C11.0445 9.30087 11.422 8.60743 11.5858 8.19137C11.7818 7.69362 11.9346 7.04712 11.9678 6.5758C11.9764 6.45244 11.9925 6.35152 12.0035 6.35152C12.0145 6.35152 12.0233 6.18015 12.0231 5.97066C12.0229 5.75958 12.0141 5.60347 12.0033 5.62048C11.9917 5.63874 11.978 5.56285 11.9694 5.43298C11.9121 4.56683 11.548 3.51994 11.0294 2.73043C10.0652 1.26237 8.5778 0.314748 6.83208 0.0562557C6.54546 0.0138104 5.71355 -0.00491612 5.42583 0.0245917ZM5.52227 1.43194C3.95803 1.59692 2.57037 2.57199 1.87317 3.99605C0.761999 6.26579 1.71452 9.01458 3.99785 10.1273C5.76895 10.9904 7.87701 10.627 9.26304 9.21959C9.63755 8.8393 9.89531 8.47665 10.1271 8.00387C10.8994 6.4287 10.6964 4.55841 9.6003 3.1523C9.45457 2.96534 9.09822 2.60457 8.89458 2.43779C7.96877 1.67961 6.71623 1.30601 5.52227 1.43194ZM5.63676 1.89012C4.76679 1.99097 4.10705 2.25584 3.43814 2.77276L3.25514 2.91415L3.42968 3.09183C3.62048 3.28606 3.6563 3.3402 3.6563 3.43435C3.6563 3.52147 3.51853 3.65621 3.42949 3.65621C3.34282 3.65621 3.28333 3.61552 3.0809 3.4179L2.91569 3.25655L2.79398 3.40843C2.32144 3.99809 1.98108 4.79379 1.91102 5.47262C1.90305 5.54996 1.89119 5.64753 1.88473 5.68941L1.87291 5.76558H2.13295C2.42034 5.76558 2.50336 5.79111 2.55016 5.89383C2.58701 5.97465 2.58551 6.03495 2.54477 6.11375C2.49422 6.21153 2.41615 6.23433 2.1322 6.23433H1.87594L1.8884 6.34566C1.89527 6.4069 1.91721 6.56246 1.93715 6.69137C2.03606 7.33067 2.36093 8.05109 2.79398 8.59149L2.91569 8.74337L3.0809 8.58202C3.28333 8.3844 3.34282 8.34371 3.42949 8.34371C3.52158 8.34371 3.6563 8.47843 3.6563 8.57051C3.6563 8.65709 3.61561 8.71669 3.41901 8.91805L3.25875 9.0822L3.39998 9.19653C4.04041 9.71494 4.79444 10.0221 5.64262 10.11L5.76567 10.1228V9.86487C5.76567 9.57978 5.79138 9.49655 5.89392 9.44984C5.97164 9.41443 6.02845 9.41443 6.10617 9.44984C6.20876 9.49658 6.23442 9.57976 6.23442 9.86553V10.1241L6.34575 10.1116C6.40699 10.1047 6.56255 10.0828 6.69145 10.0628C7.33078 9.96392 8.05118 9.63908 8.5916 9.206L8.7435 9.08429L8.56969 8.90736C8.31012 8.64312 8.28544 8.56144 8.42348 8.4234C8.56162 8.28526 8.64314 8.30996 8.90817 8.57033L9.08585 8.74487L9.22725 8.56187C9.73786 7.90112 10.0263 7.18097 10.1103 6.35738L10.1228 6.23433H9.86723C9.58397 6.23433 9.50585 6.21146 9.45532 6.11375C9.41304 6.032 9.41304 5.96792 9.45532 5.88617C9.50585 5.78846 9.58397 5.76558 9.86723 5.76558H10.1228L10.1103 5.64254C10.026 4.81522 9.71219 4.03995 9.20608 3.4084L9.08437 3.25651L8.90744 3.43032C8.64321 3.68989 8.56153 3.71457 8.42348 3.57652C8.28544 3.43847 8.31012 3.35679 8.56969 3.09256L8.7435 2.91563L8.59638 2.79819C7.93385 2.26929 7.23912 1.98842 6.34575 1.88832L6.23442 1.87585V2.13212C6.23442 2.41606 6.21162 2.49413 6.11383 2.54469C5.9925 2.60743 5.84566 2.56393 5.79368 2.44983C5.77741 2.41414 5.76567 2.28078 5.76567 2.13167C5.76567 1.94004 5.75824 1.87585 5.73637 1.87847C5.72027 1.8804 5.67544 1.88565 5.63676 1.89012ZM5.88544 3.68893C5.76738 3.75434 5.76738 3.75422 5.76649 4.94058C5.76581 5.85533 5.77151 6.06022 5.79902 6.11246C5.85637 6.22123 7.36465 7.70365 7.42973 7.71521C7.5698 7.74005 7.69978 7.65706 7.71178 7.53512C7.72591 7.39133 7.71569 7.37888 6.9727 6.6335L6.23442 5.89287V4.8694C6.23442 4.1258 6.22676 3.82911 6.20641 3.78446C6.15511 3.67182 5.99972 3.62558 5.88544 3.68893ZM0.00958448 5.99996C0.00958448 6.21265 0.013147 6.29968 0.0174829 6.19332C0.0218189 6.08696 0.0218189 5.91294 0.0174829 5.8066C0.013147 5.70026 0.00958448 5.78726 0.00958448 5.99996ZM9.96356 9.87643C9.76038 9.98905 9.84539 10.3125 10.0782 10.3125C10.1969 10.3125 10.3125 10.198 10.3125 10.0804C10.3125 9.90439 10.1181 9.79076 9.96356 9.87643Z" fill="#71317D"/>
</g>
<defs>
<clipPath id="clip0_586_10100">
<rect width="12" height="12" fill="white"/>
</clipPath>
</defs>
</svg>
